<?xml version="1.0" encoding="UTF-8"?>
<svg xmlns="http://www.w3.org/2000/svg" viewBox="0 0 1095 1095" width="1095" height="1095">
<path d="M0.25 0.25C365.08 0.25 729.92 0.25 1094.75 0.25C1094.75 365.08 1094.75 729.92 1094.75 1094.75C729.92 1094.75 365.08 1094.75 0.25 1094.75C0.25 729.92 0.25 365.08 0.25 0.25ZM392.81 307C391.25 320.54 392.45 334.85 392.46 348.5C392.47 372.5 392.34 396.5 392.42 420.5C392.49 439.5 392.25 458.5 392.43 477.5C392.55 489.46 391.74 501.68 394.08 513.48C401.52 551.03 429.26 583.43 466.67 593.77C481.7 597.92 497.06 597.07 512.5 597.09C538.91 597.12 563.54 596.64 584.85 578.5C579.69 551.58 559.49 539.69 533.5 539.55C530.08 539.53 522.14 538.44 519.13 539.6C514.9 541.23 507.56 550.73 502.37 553.87C483.89 565.08 459.11 561.17 447.05 542.42C439.49 530.69 439.13 515.15 445.36 502.81C447.14 499.28 453.1 493.26 453.86 491.33C454.76 489.03 454.22 485.92 454.2 483.5C453.83 441.84 454.1 400.16 454.1 358.5C454.11 345.5 454.14 332.5 454.1 319.5C454.07 312.7 454.5 305.77 453.83 299C452.91 294.61 451.99 290.22 451.07 285.82C449.79 282.89 448.52 279.96 447.24 277.03C445.1 271.85 440.72 265.9 436.02 262.78C435.03 261.89 434.04 261 433.05 260.11C423.18 250.31 406.43 247.4 393.14 248.5C393.03 268 392.92 287.5 392.81 307ZM646.68 376.94C645.78 378.57 644.88 380.19 643.99 381.82C643.73 382.21 643.48 382.61 643.23 383C640.81 387.66 638.39 392.32 635.97 396.98C635.62 397.67 635.27 398.36 634.92 399.05C631.26 406.03 627.59 413 623.92 419.98C605.16 454.82 586.39 489.66 567.62 524.5C581.73 538.42 588.14 549.77 595.5 568.04C599.26 565.99 601.63 562.15 604.15 558.68C610.21 550.34 614.68 541.19 619.69 532.22C631.24 511.58 641.95 490.47 653.14 469.64C658.7 459.3 665.47 448.95 669.95 438.11C670.53 437.07 671.11 436.04 671.69 435C673.12 432.3 674.55 429.59 675.99 426.89C676.33 426.23 676.68 425.58 677.03 424.92C677.69 423.67 678.35 422.42 679 421.17C679.62 420.11 680.24 419.06 680.86 418C681.61 416.64 682.36 415.27 683.11 413.91C687.15 406.25 691.18 398.59 695.22 390.92C695.84 389.89 696.46 388.87 697.09 387.84C712.14 359.72 727.2 331.61 742.26 303.5C737.14 300.47 727.54 302.35 721.5 302.33C715.2 302.3 708.81 301.87 702.61 303.26C679.77 308.37 671.8 329.85 661.72 348.25C656.7 357.43 650.08 367.08 646.68 376.94ZM565.69 322.94C564.13 323.75 562.56 324.56 561 325.36C559.56 326.21 558.11 327.06 556.67 327.91C554.74 328.9 552.81 329.89 550.88 330.88C546.59 332.57 542.31 334.26 538.02 335.95C533.36 336.87 528.83 339.05 524.35 340.73C498.65 350.35 483.78 368.46 483.63 396.5C483.59 403.2 483.4 414.04 487.5 419.39C494.14 404.53 504.74 388.41 519.87 381.01C519.01 385.59 511.58 393.55 508.76 398.28C502.34 409.06 496.75 423.18 497 435.85C496.97 436.28 496.94 436.71 496.91 437.14C496.71 438.76 496.51 440.38 496.3 442C496.37 443.17 496.43 444.34 496.5 445.5C497.64 443.95 498.77 442.4 499.91 440.84C503.82 437.24 507.63 433.5 512.3 430.81C520.55 426.07 529.57 423.23 537.58 418.07C547.67 411.57 556.25 401.69 561.39 390.86C563.28 386.86 565.53 382.48 566.12 378.16C567.43 373.44 568.74 368.73 570.04 364.01C570.22 363.67 570.4 363.34 570.58 363C571.08 359.32 571.58 355.63 572.08 351.95C572.38 349.96 572.68 347.98 572.97 346C573.11 345.05 573.25 344.09 573.39 343.14C573.6 340.09 573.8 337.05 574 334C574.11 328.5 574.22 323 574.32 317.5C571.45 319.31 568.57 321.13 565.69 322.94ZM533.72 434.36C521.21 436.66 513.53 448 504.92 456.42C493.29 467.78 481.94 479.44 470.39 490.88C465.1 496.12 458.72 500.99 455.06 507.59C447.77 520.75 452.81 537.41 465.12 545.42C473.7 550.99 485.12 551.38 494.13 546.6C502.2 542.32 508.52 533.8 514.94 527.44C526.31 516.16 537.85 504.96 548.85 493.34C555.35 486.48 563.1 480.9 566.14 471.54C572.9 450.78 555.07 430.44 533.72 434.36ZM491.5 477.77C502.6 488.68 513.69 499.59 524.79 510.5C521.59 513.9 518.18 517.09 514.89 520.4C503.07 532.25 490.5 550.82 471.34 543.19C468.59 542.1 466.19 540.5 464.06 538.46C461.97 536.47 460.19 534.19 458.94 531.58C450.19 513.34 465.66 502.71 476.95 491.44C481.41 486.98 485.94 480.67 491.5 477.77ZM263.97 633.23C257.38 633.23 250.78 633.23 244.18 633.23C244.18 668.18 244.18 703.14 244.18 738.09C252.15 739.04 260.46 738.46 268.5 738.44C283.5 738.41 298.5 738.45 313.5 738.48C323.02 738.51 343.39 739.97 351.5 737.59C351.5 731.73 351.5 725.88 351.5 720.02C322.33 720.02 293.15 720.02 263.97 720.02C263.97 691.09 263.97 662.16 263.97 633.23ZM554.52 633.5C543.99 632.45 533.09 633.19 522.5 633.19C503.17 633.2 483.83 633.15 464.5 633.15C451.25 633.15 438.3 633.86 438.04 650.5C444.51 652.87 463.52 651.37 471.5 651.36C489.83 651.33 508.17 651.3 526.5 651.37C535.38 651.4 546.03 652.9 554.52 650.54C554.52 644.86 554.52 639.18 554.52 633.5ZM644.5 633.23C637.46 633.23 630.43 633.23 623.39 633.23C625.46 641.88 632.18 650.27 636.35 658.18C647.2 678.79 659.1 698.81 670.28 719.24C676.68 730.94 680.9 740.54 696.5 738.81C709.09 737.41 713.24 724.8 718.77 715.26C729.34 697.01 739.25 678.33 749.31 659.77C753.91 651.28 760.54 642.47 763.23 633.24C756.15 633.24 749.07 633.24 741.99 633.24C725.83 662.21 709.66 691.19 693.5 720.17C677.17 691.19 660.83 662.21 644.5 633.23ZM850.89 633.24C844.33 633.24 837.76 633.24 831.2 633.24C831.2 668.3 831.2 703.36 831.2 738.43C837.76 738.43 844.33 738.43 850.89 738.43C850.89 703.36 850.89 668.3 850.89 633.24ZM418.8 676.72C418.8 682.76 418.8 688.81 418.8 694.86C457.55 694.86 496.3 694.86 535.05 694.86C535.05 688.81 535.05 682.76 535.05 676.72C496.3 676.72 457.55 676.72 418.8 676.72ZM555.15 720.03C515.24 720.03 475.33 720.03 435.42 720.03C435.56 738.8 450.05 738.48 464.5 738.49C494.7 738.53 524.97 739.09 555.15 738.4C555.15 732.28 555.15 726.16 555.15 720.03ZM353.35 787C353.36 790.35 352.68 790.02 355.5 790.83C355.57 789.89 355.63 788.94 355.7 788C356.06 787.3 355.92 786.53 356.7 786.04C360.39 783.75 367.84 787.53 368.08 779.5C368.31 771.66 358.72 772.59 353.5 773.33C353.45 777.89 353.4 782.44 353.35 787ZM380.96 772.95C380.96 779.14 380.96 785.33 380.96 791.53C382.89 790.58 381.65 792.11 382.77 791.17C384.03 790.1 383.65 784.95 383.91 783.26C387.21 783.26 390.52 783.26 393.82 783.26C394.05 786.22 393.43 789.54 395.5 791.64C395.96 791.1 396.39 791.1 396.63 790.31C397.2 788.45 397.37 775.34 396.61 773.78C395.86 772.23 396.59 774.29 395.5 772.8C393.49 775.25 394.07 777.34 393.72 780.68C390.51 780.68 387.31 780.68 384.11 780.68C383.68 779.15 384.07 774.68 383.05 773.69C382.52 773.18 381.58 773.35 380.96 772.95ZM418.5 772.86C417.57 773.26 417.08 773.05 416.3 773.8C415.9 774.17 409.28 788.77 409.16 789.63C409.03 790.52 409.36 790.77 409.5 791.52C411.73 790.59 412.16 788.99 413.5 787.02C416.5 787.02 419.5 787.02 422.5 787.02C423.5 788.52 424.5 790.03 425.5 791.53C426.35 790.9 426.6 791.88 426.96 790.45C427.3 789.12 425.62 786.59 425.11 785.41C423.31 781.26 421.65 776.01 418.5 772.86ZM439.5 773.3C438.98 778.7 437.95 786.89 440.5 791.59C442.16 789.25 441.56 787.84 442.32 786.74C442.89 785.93 443.6 786.01 444.5 785.89C448.91 785.34 448.34 788.41 451.04 790.42C451.92 791.07 452.54 791.03 453.5 791.43C452.6 789.45 451.7 787.48 450.8 785.5C451.78 784.53 453.11 783.53 453.63 782.21C457.56 772.24 445.44 772.42 439.5 773.3ZM468.5 772.97C467.03 778.12 466.78 786.4 468.5 791.54C469.6 790.76 468.83 792.18 469.7 791.16C471.08 789.53 470.38 781.6 470.5 778.98C472.83 782.48 475.17 785.98 477.5 789.48C479.68 787.36 482.02 784.44 481 781.5C479.83 782.74 478.67 783.98 477.5 785.22C474.98 781.34 472.79 774.43 468.5 772.97ZM486.5 772.86C485 773.46 482.79 774.29 482.83 776.5C482.86 778.04 484.21 778.31 484.68 779.67C486 783.57 483.13 788.77 486.5 791.57C488.44 786.75 488.17 777.7 486.5 772.86ZM509.5 772.9C508.52 773.26 508.05 773.01 507.2 773.74C506.3 774.51 505.79 776.7 505.31 777.78C504.15 780.37 499.99 787.06 499.98 789.55C499.97 790.25 500.44 790.88 500.5 791.58C501.83 790.52 502.69 788.31 503.96 787.5C505.59 786.45 511.49 786.44 513.2 787.36C514.92 788.28 514.36 790.05 517.5 791.56C517.24 786.63 512.52 776.99 509.5 772.9ZM543.85 776.5C543.29 774.23 544.68 776.74 543.8 774.77C542.96 772.88 539.12 772.79 537.5 772.84C532.13 773.02 527.8 776.92 528.01 782.5C528.32 790.6 542.01 795.99 544.5 788.22C541.02 786.68 532.25 792.83 531.07 783.49C530.48 778.74 533.58 774.85 538.5 775.13C540.43 775.24 542 776.31 543.85 776.5ZM566.12 791.11C567.63 790.91 569.14 790.7 570.65 790.5C569.44 790.1 568.22 789.71 567 789.31C564.68 789.04 562.36 788.77 560.04 788.5C560.01 778.49 563.99 786.17 569.19 781.5C563.29 780.01 559.77 783.32 560.29 775.5C562.66 775.1 567.32 776.07 569.32 774.84C571.25 773.67 568.5 775.04 570.13 773.5C565.92 773.41 561.71 773.31 557.5 773.22C557.5 779.21 557.5 785.2 557.5 791.19C560.37 791.16 563.25 791.14 566.12 791.11ZM598.87 785.84C598.91 783.57 598.94 781.29 598.98 779.02C598.82 776.99 598.66 774.97 598.5 772.94C597.04 774.34 598.23 772.03 597.1 773.71C594.97 776.86 598.31 783.46 594.5 788.43C591.75 789.27 590.05 789.12 587.5 787.89C585.23 783.53 587.75 776.94 585.79 773.71C584.67 771.87 585.96 774.47 584.5 772.87C582.22 776.44 582.07 786.5 585.72 789.8C590.29 793.94 597.7 791.62 598.87 785.84ZM625.5 773C620.67 773 615.83 773 611 773C611.39 773.5 611.25 774.35 611.74 774.76C613.02 775.83 615.53 774.31 616.6 775.82C618.56 778.59 615.45 787.14 617.15 790.4C617.42 790.93 618.14 791.1 618.5 791.58C620.45 787.71 618.03 778.12 620.06 775.74C621.2 774.4 623.15 775.67 624.43 774.8C625.01 774.41 625.01 773.49 625.5 773ZM639.5 772.86C637.87 774.38 639.32 771.85 638.02 773.68C636.31 776.06 637.66 788.84 638.5 791.64C638.93 791.15 639.74 791.03 640.08 790.48C641.7 787.88 640.5 775.69 639.5 772.86ZM669.5 775.66C664.93 768.1 653.08 774.84 653.39 782.43C653.75 790.93 664.51 794.91 670 788.5C669.44 788.36 669.04 787.77 668.47 787.72C667.16 787.63 665.81 788.87 664.49 789.06C660.23 789.66 656.34 786.94 656.2 782.5C655.84 771.29 665.88 777.55 669.5 775.66ZM689.5 772.88C688.64 773.33 688.18 773.2 687.47 773.94C686.34 775.12 680.4 788.07 680.25 789.7C680.2 790.29 680.5 790.86 680.5 791.46C683.57 790 683.04 788.15 684.75 787.28C686.5 786.39 692.37 786.45 694.04 787.51C695.35 788.34 696.12 790.51 697.5 791.59C697.71 791.24 698.31 790.98 698.44 790.52C698.77 789.38 697.01 787 696.53 786.01C694.43 781.75 692.99 775.96 689.5 772.88ZM717 791.15C718.73 790.93 720.46 790.72 722.19 790.5C721.46 790.09 720.73 789.68 720 789.27C717.83 789.06 715.67 788.85 713.5 788.65C713.26 785.63 714.21 775.77 712.88 773.71C711.8 772.04 712.89 774.27 711.5 772.83C709.92 778.27 710.21 785.91 711.35 791.5C713.23 791.38 715.12 791.27 717 791.15ZM737.87 791.15C738.91 791.31 739.96 791.48 741 791.65C744.9 791.17 746.33 789.28 746.81 785.5C743.98 780.13 738.33 782.24 736.12 777.5C738.48 773.71 742.08 775.85 745.77 775.5C742.63 770.16 734.19 772.67 733.19 778.5C735.59 783.6 741.42 782.06 744.1 786.5C741.33 790.77 737.06 787.95 733.03 788.5C734.52 790.42 735.43 790.83 737.87 791.15ZM364.76 781.5C362.12 783.52 359.29 783.13 356.05 783.02C356.05 780.51 356.05 778.01 356.05 775.5C361.75 774.59 365.72 774.71 364.76 781.5ZM442.21 775.32C448.85 774.81 453.42 775.18 450.5 783C447.74 783 444.97 783 442.21 783C442.21 780.44 442.21 777.88 442.21 775.32ZM418.5 776.85C419.29 779.37 420.07 781.88 420.86 784.39C418.82 784.39 416.77 784.39 414.73 784.39C415.99 781.88 417.24 779.37 418.5 776.85ZM508.5 776.44C510.25 779.01 511.48 781.29 511.5 784.36C509.46 784.36 507.42 784.36 505.38 784.36C506.42 781.72 507.46 779.08 508.5 776.44ZM689.5 776.54C690.5 779.17 691.5 781.81 692.5 784.44C690.5 784.44 688.5 784.44 686.5 784.44C686.48 781.25 687.47 779.06 689.5 776.54ZM321.95 781.5C318.03 778.71 309.42 780.29 304.5 780.28C290.17 780.25 275.83 780.29 261.5 780.28C256.61 780.27 247.89 778.55 244.08 781.5C245.3 782.89 243.25 781.74 244.75 782.85C246.67 784.26 257.65 783.32 260.5 783.31C275.17 783.26 289.83 783.35 304.5 783.32C307.33 783.31 319.51 784.2 321.25 782.9C322.74 781.8 320.75 782.88 321.95 781.5ZM851 781.5C846.79 778.68 838.56 780.31 833.5 780.3C819.5 780.28 805.5 780.29 791.5 780.23C786.75 780.21 776.39 778.97 772.95 781.5C774.27 782.95 772.1 781.81 773.71 782.96C775.56 784.27 787.62 783.33 790.5 783.33C805.17 783.29 819.83 783.32 834.5 783.33C837.38 783.33 848.31 784.24 850.26 782.85C851.86 781.72 849.68 782.92 851 781.5Z" fill="#fefefe" fill-rule="evenodd" stroke="#fefefe" stroke-width="0.25" stroke-linejoin="round"/>
<path d="M433.05 260.11C434.04 261 435.03 261.89 436.02 262.78C434.09 262.25 433.81 262.02 433.05 260.11ZM447.24 277.03C448.52 279.96 449.79 282.89 451.07 285.82C448.34 284.31 447.32 280.1 447.24 277.03ZM453.83 299C454.5 305.77 454.07 312.7 454.1 319.5C454.14 332.5 454.11 345.5 454.1 358.5C454.1 400.16 453.83 441.84 454.2 483.5C454.22 485.92 454.76 489.03 453.86 491.33C453.1 493.26 447.14 499.28 445.36 502.81C439.13 515.15 439.49 530.69 447.05 542.42C459.11 561.17 483.89 565.08 502.37 553.87C507.56 550.73 514.9 541.23 519.13 539.6C522.14 538.44 530.08 539.53 533.5 539.55C559.49 539.69 579.69 551.58 584.85 578.5C563.54 596.64 538.91 597.12 512.5 597.09C497.06 597.07 481.7 597.92 466.67 593.77C429.26 583.43 401.52 551.03 394.08 513.48C391.74 501.68 392.55 489.46 392.43 477.5C392.25 458.5 392.49 439.5 392.42 420.5C392.34 396.5 392.47 372.5 392.46 348.5C392.45 334.85 391.25 320.54 392.81 307C394.66 309.44 394 313.21 394 316.5C394 323.48 393.48 330.57 393.59 337.5C393.97 362.12 394.13 386.86 394.99 411.5C395.17 416.52 394.9 421.5 395.5 426.49C396.17 420.87 396.83 415.25 397.5 409.62C398.17 417.63 398.83 425.64 399.5 433.65C400.5 427.34 401.5 421.03 402.5 414.72C402.81 415.24 404.09 418.36 404.55 418.47C405.34 418.66 406.09 416.53 406.74 416.25C407.51 415.91 408.68 416 409.5 416.04C412.17 416.2 411.76 417.81 413.7 418.6C414.98 419.13 417.13 418.72 418.5 418.72C419.43 413.89 420.77 413.96 425.5 413.96C425.83 412.29 426.17 410.62 426.5 408.96C428.34 408.96 430.49 409.27 432.28 408.76C436.99 407.41 443.01 401.86 447.6 406.5C447.87 400.83 448.13 395.17 448.4 389.5C448.85 388.49 448.78 388.91 449.67 389.5C449.94 385.5 450.21 381.5 450.48 377.5C450.82 385.5 451.15 393.5 451.48 401.5C453.05 376.64 450.74 350.6 452.97 325.5C453.54 319.04 451.3 303.86 453.83 299ZM533.72 434.36C555.07 430.44 572.9 450.78 566.14 471.54C563.1 480.9 555.35 486.48 548.85 493.34C537.85 504.96 526.31 516.16 514.94 527.44C508.52 533.8 502.2 542.32 494.13 546.6C485.12 551.38 473.7 550.99 465.12 545.42C452.81 537.41 447.77 520.75 455.06 507.59C458.72 500.99 465.1 496.12 470.39 490.88C481.94 479.44 493.29 467.78 504.92 456.42C513.53 448 521.21 436.66 533.72 434.36ZM497 435.85C497.33 436.06 497.66 436.28 498 436.5C498.07 437.5 498.15 438.5 498.22 439.5C498.78 439.95 499.35 440.4 499.91 440.84C498.77 442.4 497.64 443.95 496.5 445.5C496.43 444.34 496.37 443.17 496.3 442C496.61 441.83 496.92 441.67 497.23 441.5C497.12 440.05 497.02 438.59 496.91 437.14C496.94 436.71 496.97 436.28 497 435.85ZM491.5 477.77C485.94 480.67 481.41 486.98 476.95 491.44C465.66 502.71 450.19 513.34 458.94 531.58C460.19 534.19 461.97 536.47 464.06 538.46C466.19 540.5 468.59 542.1 471.34 543.19C490.5 550.82 503.07 532.25 514.89 520.4C518.18 517.09 521.59 513.9 524.79 510.5C513.69 499.59 502.6 488.68 491.5 477.77ZM263.97 633.23C263.97 662.16 263.97 691.09 263.97 720.02C293.15 720.02 322.33 720.02 351.5 720.02C351.5 725.88 351.5 731.73 351.5 737.59C343.39 739.97 323.02 738.51 313.5 738.48C298.5 738.45 283.5 738.41 268.5 738.44C260.46 738.46 252.15 739.04 244.18 738.09C244.18 703.14 244.18 668.18 244.18 633.23C250.78 633.23 257.38 633.23 263.97 633.23ZM554.52 633.5C554.52 639.18 554.52 644.86 554.52 650.54C546.03 652.9 535.38 651.4 526.5 651.37C508.17 651.3 489.83 651.33 471.5 651.36C463.52 651.37 444.51 652.87 438.04 650.5C438.3 633.86 451.25 633.15 464.5 633.15C483.83 633.15 503.17 633.2 522.5 633.19C533.09 633.19 543.99 632.45 554.52 633.5ZM644.5 633.23C660.83 662.21 677.17 691.19 693.5 720.17C709.66 691.19 725.83 662.21 741.99 633.24C749.07 633.24 756.15 633.24 763.23 633.24C760.54 642.47 753.91 651.28 749.31 659.77C739.25 678.33 729.34 697.01 718.77 715.26C713.24 724.8 709.09 737.41 696.5 738.81C680.9 740.54 676.68 730.94 670.28 719.24C659.1 698.81 647.2 678.79 636.35 658.18C632.18 650.27 625.46 641.88 623.39 633.23C630.43 633.23 637.46 633.23 644.5 633.23ZM850.89 633.24C850.89 668.3 850.89 703.36 850.89 738.43C844.33 738.43 837.76 738.43 831.2 738.43C831.2 703.36 831.2 668.3 831.2 633.24C837.76 633.24 844.33 633.24 850.89 633.24ZM418.8 676.72C457.55 676.72 496.3 676.72 535.05 676.72C535.05 682.76 535.05 688.81 535.05 694.86C496.3 694.86 457.55 694.86 418.8 694.86C418.8 688.81 418.8 682.76 418.8 676.72ZM555.15 720.03C555.15 726.16 555.15 732.28 555.15 738.4C524.97 739.09 494.7 738.53 464.5 738.49C450.05 738.48 435.56 738.8 435.42 720.03C475.33 720.03 515.24 720.03 555.15 720.03ZM598.98 779.02C598.94 781.29 598.91 783.57 598.87 785.84C598.73 785.73 598.59 785.61 598.44 785.5C598.62 783.34 598.8 781.18 598.98 779.02ZM355.7 788C355.63 788.94 355.57 789.89 355.5 790.83C352.68 790.02 353.36 790.35 353.35 787C353.74 786.37 354.12 785.74 354.5 785.1C354.9 786.07 355.3 787.03 355.7 788ZM567 789.31C568.22 789.71 569.44 790.1 570.65 790.5C569.14 790.7 567.63 790.91 566.12 791.11C565.02 790.91 563.91 790.7 562.81 790.5C564.04 790.49 565.27 790.49 566.5 790.48C566.67 790.09 566.83 789.7 567 789.31ZM720 789.27C720.73 789.68 721.46 790.09 722.19 790.5C720.46 790.72 718.73 790.93 717 791.15C715.63 790.93 714.25 790.72 712.88 790.5C715.09 790.45 717.29 790.4 719.5 790.36C719.67 789.99 719.83 789.63 720 789.27ZM741 791.65C739.96 791.48 738.91 791.31 737.87 791.15C738.08 790.9 738.29 790.65 738.5 790.4C739.75 790.44 741.01 790.47 742.26 790.5C741.84 790.88 741.42 791.27 741 791.65Z" fill="#0c3c71" fill-rule="evenodd" stroke="#0c3c71" stroke-width="0.25" stroke-linejoin="round"/>
<path d="M565.69 322.94C565.29 323.96 564.9 324.98 564.5 326C563.5 326 562.5 326 561.5 326C561.33 325.79 561.17 325.58 561 325.36C562.56 324.56 564.13 323.75 565.69 322.94ZM556.67 327.91C555.61 328.94 554.56 329.97 553.5 331C552.63 330.96 551.75 330.92 550.88 330.88C552.81 329.89 554.74 328.9 556.67 327.91ZM550.88 330.88C549.75 331.92 548.63 332.96 547.5 334C545.83 334.67 544.17 335.33 542.5 336C541.5 336.33 540.5 336.67 539.5 337C539.01 336.65 538.52 336.3 538.02 335.95C542.31 334.26 546.59 332.57 550.88 330.88ZM574 334C573.8 337.05 573.6 340.09 573.39 343.14C573.26 340.26 573.13 337.38 573 334.5C573.33 334.33 573.67 334.17 574 334ZM538.02 335.95C537.35 337.14 536.67 338.32 536 339.5C534.61 338.87 530.73 338.45 529.9 340.68C529.75 341.1 530.32 342.32 530 343.5C529.85 343.36 528.06 341.52 527.8 341.74C527.58 341.93 527.67 342.48 527.38 342.5C528.12 345.72 529.87 346.21 530.87 348.67C531.33 349.81 530.95 351.02 531.74 352C532.09 352.45 533.17 352.19 533.7 352.72C533.81 352.83 537.38 359.58 537.44 359.81C537.76 360.96 537.16 361.52 536.82 362.5C539.23 364.41 542.24 368.25 544.99 369.46C547.1 370.39 550.61 370.17 551.96 372.66C552.89 374.37 551.5 376.68 552.3 378.21C552.95 379.47 552.48 377.71 553.5 378.77C555.65 378.65 555.95 378.38 557.5 377C558.5 379.31 559.5 381.62 560.5 383.93C562.67 381.46 561.77 378.86 563.5 382.6C564.37 381.12 565.25 379.64 566.12 378.16C565.53 382.48 563.28 386.86 561.39 390.86C556.25 401.69 547.67 411.57 537.58 418.07C529.57 423.23 520.55 426.07 512.3 430.81C507.63 433.5 503.82 437.24 499.91 440.84C499.35 440.4 498.78 439.95 498.22 439.5C498.15 438.5 498.07 437.5 498 436.5C497.66 436.28 497.33 436.06 497 435.85C496.75 423.18 502.34 409.06 508.76 398.28C511.58 393.55 519.01 385.59 519.87 381.01C520.42 381.17 520.96 381.33 521.5 381.5C522.5 380.66 523.5 379.83 524.5 379C524.17 378.31 523.83 377.62 523.5 376.93C522.29 378.29 521.08 379.65 519.87 381.01C504.74 388.41 494.14 404.53 487.5 419.39C483.4 414.04 483.59 403.2 483.63 396.5C483.78 368.46 498.65 350.35 524.35 340.73C528.83 339.05 533.36 336.87 538.02 335.95ZM540 342.5C540.33 343.5 540.67 344.5 541 345.5C537.72 347.14 534.81 347.58 531.5 346C532.98 343.98 537.31 343.06 540 342.5ZM572.97 346C572.68 347.98 572.38 349.96 572.08 351.95C572.06 350.13 572.03 348.32 572 346.5C572.32 346.33 572.65 346.17 572.97 346ZM572.08 351.95C571.58 355.63 571.08 359.32 570.58 363C570.39 362.83 570.19 362.67 570 362.5C570 360.83 570 359.17 570 357.5C570.33 355.83 570.67 354.17 571 352.5C571.36 352.32 571.72 352.13 572.08 351.95ZM570.04 364.01C568.74 368.73 567.43 373.44 566.12 378.16C566.42 374.61 566.71 371.05 567 367.5C568.01 366.34 569.03 365.17 570.04 364.01ZM646.68 376.94C646.78 377.79 646.89 378.65 647 379.5C646.5 380.33 646 381.17 645.5 382C645 381.94 644.49 381.88 643.99 381.82C644.88 380.19 645.78 378.57 646.68 376.94ZM643.23 383C643.49 383.5 643.74 384 644 384.5C641.58 388.83 639.17 393.17 636.75 397.5C636.49 397.33 636.23 397.15 635.97 396.98C638.39 392.32 640.81 387.66 643.23 383ZM697.09 387.84C696.46 388.87 695.84 389.89 695.22 390.92C695.64 389.62 696.07 388.31 696.5 387C696.7 387.28 696.89 387.56 697.09 387.84ZM634.92 399.05C635.11 399.58 635.31 400.12 635.5 400.65C634.24 402.96 633.41 405.34 632.2 407.62C631.39 409.13 630.03 410.3 629.28 411.86C627.59 415.34 627.6 417.88 623.92 419.98C627.59 413 631.26 406.03 634.92 399.05ZM683.11 413.91C682.36 415.27 681.61 416.64 680.86 418C680.57 417.83 680.29 417.67 680 417.5C680.83 416 681.67 414.5 682.5 413C682.7 413.3 682.91 413.61 683.11 413.91ZM623.92 419.98C624.02 423.29 622.91 423.09 624.89 425.5C622.04 426.83 619.11 430.3 618.38 433.5C618.34 433.66 618.67 434.33 618.59 434.5C618.08 435.56 616.9 436.48 616.36 437.5C617.02 438.99 616.13 437.71 617.5 437.05C618.6 436.53 618.16 438.41 619.11 436.66C619.23 436.44 619.36 436.22 619.5 436C621.5 433.8 623.5 431.6 625.5 429.39C629.69 431.84 625.55 431.32 626.75 432.82C627.67 433.97 636.69 435.7 638.34 436.11C641.59 436.92 643.71 439.63 646.9 440.5C647.1 442.7 647.3 444.9 647.5 447.1C651.75 447.9 654.4 448.43 657.5 450.71C657.17 449.74 656.83 448.77 656.5 447.8C657.87 448.58 658.51 448.81 659.47 450.11C659.66 450.38 659.93 451.63 660.43 451.55C661.18 451.43 660.91 450.69 661.5 450.34C660.91 449.73 660.31 449.11 659.72 448.5C660.35 448.05 660.75 447.35 661.56 447.2C661.86 447.14 662.16 447.74 662.39 447.55C662.5 447.46 662.14 445.11 662.57 444.56C662.77 444.31 664.51 443.78 664.94 443.43C667.19 441.62 667.31 438.98 669.95 438.11C665.47 448.95 658.7 459.3 653.14 469.64C641.95 490.47 631.24 511.58 619.69 532.22C614.68 541.19 610.21 550.34 604.15 558.68C601.63 562.15 599.26 565.99 595.5 568.04C588.14 549.77 581.73 538.42 567.62 524.5C586.39 489.66 605.16 454.82 623.92 419.98ZM679 421.17C678.35 422.42 677.69 423.67 677.03 424.92C676.68 424.78 676.34 424.64 676 424.5C676.5 423.13 677 421.77 677.5 420.4C678 420.66 678.5 420.92 679 421.17ZM675.99 426.89C674.55 429.59 673.12 432.3 671.69 435C671.25 434.5 670.81 434 670.36 433.5C672.08 430.84 673.79 428.18 675.5 425.52C675.66 425.98 675.83 426.43 675.99 426.89ZM496.91 437.14C497.02 438.59 497.12 440.05 497.23 441.5C496.92 441.67 496.61 441.83 496.3 442C496.51 440.38 496.71 438.76 496.91 437.14ZM612.5 447C612.5 448 612.5 449 612.5 450C612.83 449.33 613.17 448.67 613.5 448C613.83 449 614.17 450 614.5 451C615.05 448.1 615.23 447.86 612.5 447ZM355.7 788C355.3 787.03 354.9 786.07 354.5 785.1C354.12 785.74 353.74 786.37 353.35 787C353.4 782.44 353.45 777.89 353.5 773.33C358.72 772.59 368.31 771.66 368.08 779.5C367.84 787.53 360.39 783.75 356.7 786.04C355.92 786.53 356.06 787.3 355.7 788ZM380.96 772.95C381.58 773.35 382.52 773.18 383.05 773.69C384.07 774.68 383.68 779.15 384.11 780.68C387.31 780.68 390.51 780.68 393.72 780.68C394.07 777.34 393.49 775.25 395.5 772.8C396.59 774.29 395.86 772.23 396.61 773.78C397.37 775.34 397.2 788.45 396.63 790.31C396.39 791.1 395.96 791.1 395.5 791.64C393.43 789.54 394.05 786.22 393.82 783.26C390.52 783.26 387.21 783.26 383.91 783.26C383.65 784.95 384.03 790.1 382.77 791.17C381.65 792.11 382.89 790.58 380.96 791.53C380.96 785.33 380.96 779.14 380.96 772.95ZM418.5 772.86C421.65 776.01 423.31 781.26 425.11 785.41C425.62 786.59 427.3 789.12 426.96 790.45C426.6 791.88 426.35 790.9 425.5 791.53C424.5 790.03 423.5 788.52 422.5 787.02C419.5 787.02 416.5 787.02 413.5 787.02C412.16 788.99 411.73 790.59 409.5 791.52C409.36 790.77 409.03 790.52 409.16 789.63C409.28 788.77 415.9 774.17 416.3 773.8C417.08 773.05 417.57 773.26 418.5 772.86ZM439.5 773.3C445.44 772.42 457.56 772.24 453.63 782.21C453.11 783.53 451.78 784.53 450.8 785.5C451.7 787.48 452.6 789.45 453.5 791.43C452.54 791.03 451.92 791.07 451.04 790.42C448.34 788.41 448.91 785.34 444.5 785.89C443.6 786.01 442.89 785.93 442.32 786.74C441.56 787.84 442.16 789.25 440.5 791.59C437.95 786.89 438.98 778.7 439.5 773.3ZM468.5 772.97C472.79 774.43 474.98 781.34 477.5 785.22C478.67 783.98 479.83 782.74 481 781.5C482.02 784.44 479.68 787.36 477.5 789.48C475.17 785.98 472.83 782.48 470.5 778.98C470.38 781.6 471.08 789.53 469.7 791.16C468.83 792.18 469.6 790.76 468.5 791.54C466.78 786.4 467.03 778.12 468.5 772.97ZM486.5 772.86C488.17 777.7 488.44 786.75 486.5 791.57C483.13 788.77 486 783.57 484.68 779.67C484.21 778.31 482.86 778.04 482.83 776.5C482.79 774.29 485 773.46 486.5 772.86ZM509.5 772.9C512.52 776.99 517.24 786.63 517.5 791.56C514.36 790.05 514.92 788.28 513.2 787.36C511.49 786.44 505.59 786.45 503.96 787.5C502.69 788.31 501.83 790.52 500.5 791.58C500.44 790.88 499.97 790.25 499.98 789.55C499.99 787.06 504.15 780.37 505.31 777.78C505.79 776.7 506.3 774.51 507.2 773.74C508.05 773.01 508.52 773.26 509.5 772.9ZM543.85 776.5C542 776.31 540.43 775.24 538.5 775.13C533.58 774.85 530.48 778.74 531.07 783.49C532.25 792.83 541.02 786.68 544.5 788.22C542.01 795.99 528.32 790.6 528.01 782.5C527.8 776.92 532.13 773.02 537.5 772.84C539.12 772.79 542.96 772.88 543.8 774.77C544.68 776.74 543.29 774.23 543.85 776.5ZM567 789.31C566.83 789.7 566.67 790.09 566.5 790.48C565.27 790.49 564.04 790.49 562.81 790.5C563.91 790.7 565.02 790.91 566.12 791.11C563.25 791.14 560.37 791.16 557.5 791.19C557.5 785.2 557.5 779.21 557.5 773.22C561.71 773.31 565.92 773.41 570.13 773.5C568.5 775.04 571.25 773.67 569.32 774.84C567.32 776.07 562.66 775.1 560.29 775.5C559.77 783.32 563.29 780.01 569.19 781.5C563.99 786.17 560.01 778.49 560.04 788.5C562.36 788.77 564.68 789.04 567 789.31ZM598.98 779.02C598.8 781.18 598.62 783.34 598.44 785.5C598.59 785.61 598.73 785.73 598.87 785.84C597.7 791.62 590.29 793.94 585.72 789.8C582.07 786.5 582.22 776.44 584.5 772.87C585.96 774.47 584.67 771.87 585.79 773.71C587.75 776.94 585.23 783.53 587.5 787.89C590.05 789.12 591.75 789.27 594.5 788.43C598.31 783.46 594.97 776.86 597.1 773.71C598.23 772.03 597.04 774.34 598.5 772.94C598.66 774.97 598.82 776.99 598.98 779.02ZM625.5 773C625.01 773.49 625.01 774.41 624.43 774.8C623.15 775.67 621.2 774.4 620.06 775.74C618.03 778.12 620.45 787.71 618.5 791.58C618.14 791.1 617.42 790.93 617.15 790.4C615.45 787.14 618.56 778.59 616.6 775.82C615.53 774.31 613.02 775.83 611.74 774.76C611.25 774.35 611.39 773.5 611 773C615.83 773 620.67 773 625.5 773ZM669.5 775.66C665.88 777.55 655.84 771.29 656.2 782.5C656.34 786.94 660.23 789.66 664.49 789.06C665.81 788.87 667.16 787.63 668.47 787.72C669.04 787.77 669.44 788.36 670 788.5C664.51 794.91 653.75 790.93 653.39 782.43C653.08 774.84 664.93 768.1 669.5 775.66ZM689.5 772.88C692.99 775.96 694.43 781.75 696.53 786.01C697.01 787 698.77 789.38 698.44 790.52C698.31 790.98 697.71 791.24 697.5 791.59C696.12 790.51 695.35 788.34 694.04 787.51C692.37 786.45 686.5 786.39 684.75 787.28C683.04 788.15 683.57 790 680.5 791.46C680.5 790.86 680.2 790.29 680.25 789.7C680.4 788.07 686.34 775.12 687.47 773.94C688.18 773.2 688.64 773.33 689.5 772.88ZM720 789.27C719.83 789.63 719.67 789.99 719.5 790.36C717.29 790.4 715.09 790.45 712.88 790.5C714.25 790.72 715.63 790.93 717 791.15C715.12 791.27 713.23 791.38 711.35 791.5C710.21 785.91 709.92 778.27 711.5 772.83C712.89 774.27 711.8 772.04 712.88 773.71C714.21 775.77 713.26 785.63 713.5 788.65C715.67 788.85 717.83 789.06 720 789.27ZM741 791.65C741.42 791.27 741.84 790.88 742.26 790.5C741.01 790.47 739.75 790.44 738.5 790.4C738.29 790.65 738.08 790.9 737.87 791.15C735.43 790.83 734.52 790.42 733.03 788.5C737.06 787.95 741.33 790.77 744.1 786.5C741.42 782.06 735.59 783.6 733.19 778.5C734.19 772.67 742.63 770.16 745.77 775.5C742.08 775.85 738.48 773.71 736.12 777.5C738.33 782.24 743.98 780.13 746.81 785.5C746.33 789.28 744.9 791.17 741 791.65ZM364.76 781.5C365.72 774.71 361.75 774.59 356.05 775.5C356.05 778.01 356.05 780.51 356.05 783.02C359.29 783.13 362.12 783.52 364.76 781.5ZM442.21 775.32C442.21 777.88 442.21 780.44 442.21 783C444.97 783 447.74 783 450.5 783C453.42 775.18 448.85 774.81 442.21 775.32ZM418.5 776.85C417.24 779.37 415.99 781.88 414.73 784.39C416.77 784.39 418.82 784.39 420.86 784.39C420.07 781.88 419.29 779.37 418.5 776.85ZM508.5 776.44C507.46 779.08 506.42 781.72 505.38 784.36C507.42 784.36 509.46 784.36 511.5 784.36C511.48 781.29 510.25 779.01 508.5 776.44ZM689.5 776.54C687.47 779.06 686.48 781.25 686.5 784.44C688.5 784.44 690.5 784.44 692.5 784.44C691.5 781.81 690.5 779.17 689.5 776.54ZM321.95 781.5C320.75 782.88 322.74 781.8 321.25 782.9C319.51 784.2 307.33 783.31 304.5 783.32C289.83 783.35 275.17 783.26 260.5 783.31C257.65 783.32 246.67 784.26 244.75 782.85C243.25 781.74 245.3 782.89 244.08 781.5C247.89 778.55 256.61 780.27 261.5 780.28C275.83 780.29 290.17 780.25 304.5 780.28C309.42 780.29 318.03 778.71 321.95 781.5ZM851 781.5C849.68 782.92 851.86 781.72 850.26 782.85C848.31 784.24 837.38 783.33 834.5 783.33C819.83 783.32 805.17 783.29 790.5 783.33C787.62 783.33 775.56 784.27 773.71 782.96C772.1 781.81 774.27 782.95 772.95 781.5C776.39 778.97 786.75 780.21 791.5 780.23C805.5 780.29 819.5 780.28 833.5 780.3C838.56 780.31 846.79 778.68 851 781.5Z" fill="#1d8185" fill-rule="evenodd" stroke="#1d8185" stroke-width="0.25" stroke-linejoin="round"/>
<path d="M697.09 387.84C696.89 387.56 696.7 387.28 696.5 387C696.07 388.31 695.64 389.62 695.22 390.92C691.18 398.59 687.15 406.25 683.11 413.91C682.91 413.61 682.7 413.3 682.5 413C681.67 414.5 680.83 416 680 417.5C680.29 417.67 680.57 417.83 680.86 418C680.24 419.06 679.62 420.11 679 421.17C678.5 420.92 678 420.66 677.5 420.4C677 421.77 676.5 423.13 676 424.5C676.34 424.64 676.68 424.78 677.03 424.92C676.68 425.58 676.33 426.23 675.99 426.89C675.83 426.43 675.66 425.98 675.5 425.52C673.79 428.18 672.08 430.84 670.36 433.5C670.81 434 671.25 434.5 671.69 435C671.11 436.04 670.53 437.07 669.95 438.11C667.31 438.98 667.19 441.62 664.94 443.43C664.51 443.78 662.77 444.31 662.57 444.56C662.14 445.11 662.5 447.46 662.39 447.55C662.16 447.74 661.86 447.14 661.56 447.2C660.75 447.35 660.35 448.05 659.72 448.5C660.31 449.11 660.91 449.73 661.5 450.34C660.91 450.69 661.18 451.43 660.43 451.55C659.93 451.63 659.66 450.38 659.47 450.11C658.51 448.81 657.87 448.58 656.5 447.8C656.83 448.77 657.17 449.74 657.5 450.71C654.4 448.43 651.75 447.9 647.5 447.1C647.3 444.9 647.1 442.7 646.9 440.5C643.71 439.63 641.59 436.92 638.34 436.11C636.69 435.7 627.67 433.97 626.75 432.82C625.55 431.32 629.69 431.84 625.5 429.39C623.5 431.6 621.5 433.8 619.5 436C619.36 436.22 619.23 436.44 619.11 436.66C618.16 438.41 618.6 436.53 617.5 437.05C616.13 437.71 617.02 438.99 616.36 437.5C616.9 436.48 618.08 435.56 618.59 434.5C618.67 434.33 618.34 433.66 618.38 433.5C619.11 430.3 622.04 426.83 624.89 425.5C622.91 423.09 624.02 423.29 623.92 419.98C627.6 417.88 627.59 415.34 629.28 411.86C630.03 410.3 631.39 409.13 632.2 407.62C633.41 405.34 634.24 402.96 635.5 400.65C635.31 400.12 635.11 399.58 634.92 399.05C635.27 398.36 635.62 397.67 635.97 396.98C636.23 397.15 636.49 397.33 636.75 397.5C639.17 393.17 641.58 388.83 644 384.5C643.74 384 643.49 383.5 643.23 383C643.48 382.61 643.73 382.21 643.99 381.82C644.49 381.88 645 381.94 645.5 382C646 381.17 646.5 380.33 647 379.5C646.89 378.65 646.78 377.79 646.68 376.94C650.08 367.08 656.7 357.43 661.72 348.25C671.8 329.85 679.77 308.37 702.61 303.26C708.81 301.87 715.2 302.3 721.5 302.33C727.54 302.35 737.14 300.47 742.26 303.5C727.2 331.61 712.14 359.72 697.09 387.84ZM574 334C573.67 334.17 573.33 334.33 573 334.5C573.13 337.38 573.26 340.26 573.39 343.14C573.25 344.09 573.11 345.05 572.97 346C572.65 346.17 572.32 346.33 572 346.5C572.03 348.32 572.06 350.13 572.08 351.95C571.72 352.13 571.36 352.32 571 352.5C570.67 354.17 570.33 355.83 570 357.5C570 359.17 570 360.83 570 362.5C570.19 362.67 570.39 362.83 570.58 363C570.4 363.34 570.22 363.67 570.04 364.01C569.03 365.17 568.01 366.34 567 367.5C566.71 371.05 566.42 374.61 566.12 378.16C565.25 379.64 564.37 381.12 563.5 382.6C561.77 378.86 562.67 381.46 560.5 383.93C559.5 381.62 558.5 379.31 557.5 377C555.95 378.38 555.65 378.65 553.5 378.77C552.48 377.71 552.95 379.47 552.3 378.21C551.5 376.68 552.89 374.37 551.96 372.66C550.61 370.17 547.1 370.39 544.99 369.46C542.24 368.25 539.23 364.41 536.82 362.5C537.16 361.52 537.76 360.96 537.44 359.81C537.38 359.58 533.81 352.83 533.7 352.72C533.17 352.19 532.09 352.45 531.74 352C530.95 351.02 531.33 349.81 530.87 348.67C529.87 346.21 528.12 345.72 527.38 342.5C527.67 342.48 527.58 341.93 527.8 341.74C528.06 341.52 529.85 343.36 530 343.5C530.32 342.32 529.75 341.1 529.9 340.68C530.73 338.45 534.61 338.87 536 339.5C536.67 338.32 537.35 337.14 538.02 335.95C538.52 336.3 539.01 336.65 539.5 337C540.5 336.67 541.5 336.33 542.5 336C544.17 335.33 545.83 334.67 547.5 334C548.63 332.96 549.75 331.92 550.88 330.88C551.75 330.92 552.63 330.96 553.5 331C554.56 329.97 555.61 328.94 556.67 327.91C558.11 327.06 559.56 326.21 561 325.36C561.17 325.58 561.33 325.79 561.5 326C562.5 326 563.5 326 564.5 326C564.9 324.98 565.29 323.96 565.69 322.94C568.57 321.13 571.45 319.31 574.32 317.5C574.22 323 574.11 328.5 574 334ZM540 342.5C537.31 343.06 532.98 343.98 531.5 346C534.81 347.58 537.72 347.14 541 345.5C540.67 344.5 540.33 343.5 540 342.5ZM519.87 381.01C521.08 379.65 522.29 378.29 523.5 376.93C523.83 377.62 524.17 378.31 524.5 379C523.5 379.83 522.5 380.66 521.5 381.5C520.96 381.33 520.42 381.17 519.87 381.01ZM612.5 447C615.23 447.86 615.05 448.1 614.5 451C614.17 450 613.83 449 613.5 448C613.17 448.67 612.83 449.33 612.5 450C612.5 449 612.5 448 612.5 447ZM639.5 772.86C640.5 775.69 641.7 787.88 640.08 790.48C639.74 791.03 638.93 791.15 638.5 791.64C637.66 788.84 636.31 776.06 638.02 773.68C639.32 771.85 637.87 774.38 639.5 772.86Z" fill="#33aba6" fill-rule="evenodd" stroke="#33aba6" stroke-width="0.25" stroke-linejoin="round"/>
<path d="M433.05 260.11C433.81 262.02 434.09 262.25 436.02 262.78C440.72 265.9 445.1 271.85 447.24 277.03C447.32 280.1 448.34 284.31 451.07 285.82C451.99 290.22 452.91 294.61 453.83 299C451.3 303.86 453.54 319.04 452.97 325.5C450.74 350.6 453.05 376.64 451.48 401.5C451.15 393.5 450.82 385.5 450.48 377.5C450.21 381.5 449.94 385.5 449.67 389.5C448.78 388.91 448.85 388.49 448.4 389.5C448.13 395.17 447.87 400.83 447.6 406.5C443.01 401.86 436.99 407.41 432.28 408.76C430.49 409.27 428.34 408.96 426.5 408.96C426.17 410.62 425.83 412.29 425.5 413.96C420.77 413.96 419.43 413.89 418.5 418.72C417.13 418.72 414.98 419.13 413.7 418.6C411.76 417.81 412.17 416.2 409.5 416.04C408.68 416 407.51 415.91 406.74 416.25C406.09 416.53 405.34 418.66 404.55 418.47C404.09 418.36 402.81 415.24 402.5 414.72C401.5 421.03 400.5 427.34 399.5 433.65C398.83 425.64 398.17 417.63 397.5 409.62C396.83 415.25 396.17 420.87 395.5 426.49C394.9 421.5 395.17 416.52 394.99 411.5C394.13 386.86 393.97 362.12 393.59 337.5C393.48 330.57 394 323.48 394 316.5C394 313.21 394.66 309.44 392.81 307C392.92 287.5 393.03 268 393.14 248.5C406.43 247.4 423.18 250.31 433.05 260.11Z" fill="#0f5697" fill-rule="evenodd" stroke="#0f5697" stroke-width="0.25" stroke-linejoin="round"/>
</svg>